<svg xmlns="http://www.w3.org/2000/svg" width="344" height="640" viewBox="0 0 172 320">
  <rect width="172" height="320" rx="14" fill="#0b1020"/>
  <text x="10" y="21" fill="#f8fafc" font-family="sans-serif" font-size="12" font-weight="700">PAIR DICE</text>
  <text x="162" y="21" fill="#94a3b8" text-anchor="end" font-family="sans-serif" font-size="8">3 / 8</text>
  <rect x="8" y="30" width="156" height="54" rx="8" fill="#172033" stroke="#22c55e"/>
  <circle cx="20" cy="46" r="5" fill="#22c55e"/>
  <text x="30" y="49" fill="#f8fafc" font-family="sans-serif" font-size="10" font-weight="700">D20  Ember</text>
  <text x="30" y="65" fill="#94a3b8" font-family="sans-serif" font-size="7">ID 89A21C04  •  82%</text>
  <rect x="122" y="42" width="32" height="24" rx="6" fill="#334155"/>
  <text x="138" y="57" fill="#f8fafc" text-anchor="middle" font-family="sans-serif" font-size="7">REMOVE</text>
  <rect x="8" y="90" width="156" height="54" rx="8" fill="#172033" stroke="#22c55e"/>
  <circle cx="20" cy="106" r="5" fill="#22c55e"/>
  <text x="30" y="109" fill="#f8fafc" font-family="sans-serif" font-size="10" font-weight="700">D8  Azure</text>
  <text x="30" y="125" fill="#94a3b8" font-family="sans-serif" font-size="7">ID 11DE05A8  •  67%</text>
  <rect x="122" y="102" width="32" height="24" rx="6" fill="#334155"/>
  <text x="138" y="117" fill="#f8fafc" text-anchor="middle" font-family="sans-serif" font-size="7">REMOVE</text>
  <text x="10" y="164" fill="#94a3b8" font-family="sans-serif" font-size="8" font-weight="700">NEARBY — ROLL TO IDENTIFY</text>
  <rect x="8" y="174" width="156" height="48" rx="8" fill="#172033" stroke="#38bdf8" stroke-width="2"/>
  <circle cx="20" cy="190" r="5" fill="#38bdf8"/>
  <text x="30" y="193" fill="#f8fafc" font-family="sans-serif" font-size="10" font-weight="700">D6  Nova</text>
  <text x="30" y="208" fill="#38bdf8" font-family="sans-serif" font-size="7">ROLLED 6  •  -47 dBm</text>
  <rect x="128" y="186" width="26" height="24" rx="6" fill="#2563eb"/>
  <text x="141" y="201" fill="#ffffff" text-anchor="middle" font-family="sans-serif" font-size="8" font-weight="700">ADD</text>
  <rect x="8" y="228" width="156" height="44" rx="8" fill="#111827" stroke="#334155"/>
  <circle cx="20" cy="244" r="5" fill="#64748b"/>
  <text x="30" y="247" fill="#cbd5e1" font-family="sans-serif" font-size="10" font-weight="700">D12  Onyx</text>
  <text x="30" y="261" fill="#64748b" font-family="sans-serif" font-size="7">ID 09CE7712  •  -71 dBm</text>
  <rect x="128" y="238" width="26" height="24" rx="6" fill="#2563eb"/>
  <text x="141" y="253" fill="#ffffff" text-anchor="middle" font-family="sans-serif" font-size="8" font-weight="700">ADD</text>
  <rect x="8" y="282" width="76" height="28" rx="7" fill="#1e293b"/>
  <text x="46" y="300" fill="#e2e8f0" text-anchor="middle" font-family="sans-serif" font-size="9">RESCAN</text>
  <rect x="88" y="282" width="76" height="28" rx="7" fill="#2563eb"/>
  <text x="126" y="300" fill="#ffffff" text-anchor="middle" font-family="sans-serif" font-size="9" font-weight="700">DONE</text>
</svg>
